<?xml version="1.0" standalone="no"?>
<!DOCTYPE svg PUBLIC "-//W3C//DTD SVG 20010904//EN"
 "http://www.w3.org/TR/2001/REC-SVG-20010904/DTD/svg10.dtd">
<svg version="1.0" xmlns="http://www.w3.org/2000/svg"
 width="503.000000pt" height="496.000000pt" viewBox="0 0 503.000000 496.000000"
 preserveAspectRatio="xMidYMid meet">

<g transform="translate(0.000000,496.000000) scale(0.100000,-0.100000)"
fill="#000000" stroke="none">
<path d="M570 2490 l0 -380 350 0 350 0 0 380 0 380 -350 0 -350 0 0 -380z
m516 283 c57 -30 90 -73 103 -132 18 -85 -12 -174 -74 -214 -19 -12 -35 -26
-35 -31 0 -4 29 -50 65 -101 36 -52 65 -96 65 -99 0 -3 -44 -6 -97 -6 l-98 0
-59 90 c-57 88 -60 90 -97 90 l-39 0 0 -90 0 -90 -85 0 -85 0 0 306 0 306 198
-4 c181 -3 200 -5 238 -25z"/>
<path d="M820 2580 l0 -70 70 0 c80 0 118 14 126 47 17 66 -20 93 -126 93
l-70 0 0 -70z"/>
<path d="M2787 2660 c-16 -5 -44 -20 -63 -35 l-34 -26 0 30 0 31 -80 0 -80 0
0 -235 0 -235 80 0 80 0 0 145 c0 142 1 147 25 170 13 14 34 25 45 25 12 0 32
-11 45 -25 24 -23 25 -28 25 -170 l0 -145 80 0 80 0 0 177 c0 197 -11 242 -68
275 -36 22 -98 30 -135 18z"/>
<path d="M3295 2665 c-5 -2 -22 -6 -37 -9 -75 -17 -131 -106 -130 -207 0 -132
74 -209 197 -209 59 0 85 9 122 43 29 26 37 18 29 -27 -4 -21 -19 -45 -37 -60
-26 -22 -40 -26 -97 -26 -44 0 -81 7 -110 20 l-42 19 -26 -50 c-14 -28 -24
-52 -22 -54 14 -13 89 -35 153 -46 141 -22 266 19 312 103 16 28 18 65 21 266
l3 233 -78 -3 c-74 -3 -78 -4 -75 -25 4 -29 0 -29 -46 1 -34 23 -113 40 -137
31z m159 -156 c24 -27 27 -38 22 -68 -18 -114 -196 -107 -196 8 1 93 109 131
174 60z"/>
<path d="M1330 2483 c0 -156 2 -182 20 -218 42 -87 169 -108 239 -41 35 33 41
33 41 -4 l0 -30 80 0 80 0 0 235 0 235 -80 0 -80 0 0 -144 c0 -158 -7 -178
-62 -192 -21 -4 -33 0 -52 20 -25 25 -26 28 -26 171 l0 145 -80 0 -80 0 0
-177z"/>
<path d="M2020 2648 c-19 -5 -39 -13 -43 -17 -13 -13 19 -107 34 -102 8 2 48
6 90 9 68 4 79 2 98 -17 11 -11 21 -32 21 -46 0 -22 -2 -24 -26 -15 -43 17
-145 11 -191 -9 -50 -23 -75 -65 -75 -127 0 -50 24 -95 61 -116 59 -35 147
-29 203 12 l28 21 0 -26 c0 -25 1 -25 80 -25 l80 0 0 158 c-1 208 -17 253
-105 293 -45 21 -193 25 -255 7z m178 -254 c33 -9 31 -66 -4 -93 -53 -41 -119
-14 -112 45 5 43 56 64 116 48z"/>
<path d="M3850 2383 c-21 -11 -42 -33 -54 -56 -49 -100 62 -195 164 -142 35
18 37 26 10 50 -16 14 -23 16 -32 7 -15 -15 -51 -15 -66 0 -20 20 -14 65 10
82 19 14 25 14 43 2 19 -12 24 -12 46 5 24 18 24 18 4 38 -30 29 -83 35 -125
14z"/>
<path d="M4110 2383 c-21 -11 -42 -33 -54 -56 -38 -78 17 -157 110 -157 79 0
135 74 111 146 -23 69 -101 101 -167 67z m98 -97 c4 -34 -13 -56 -44 -56 -33
0 -58 39 -45 73 18 48 83 36 89 -17z"/>
<path d="M3670 2250 c0 -39 1 -40 35 -40 34 0 35 1 35 40 0 39 -1 40 -35 40
-34 0 -35 -1 -35 -40z"/>
</g>
</svg>
